# xmcd CD database file generated by Grip 2.94
# 
# Track frame offsets:
#       150
#       48812
#       81645
#       102477
#       130172
#       170245
#       192842
#       222297
# 
# Disc length: 3571 seconds
# 
# Revision: 3
# Processed by: cddbd v1.4b41PL1 Copyright (c) Steve Scherf et al.
# Submitted via: Grip 2.94
# 
DISCID=740df108
DTITLE=Siggy Davis - Live in Europe
DYEAR=1900
DGENRE=
TTITLE0=On Broadway
TTITLE1=Blues in F
TTITLE2=Time After Time
TTITLE3=Summertime
TTITLE4=Mason Dixon Blues
TTITLE5=I Know
TTITLE6=Afro Blue
TTITLE7=Michael
EXTD=
EXTT0=
EXTT1=
EXTT2=
EXTT3=
EXTT4=
EXTT5=
EXTT6=
EXTT7=
PLAYORDER=
